<?xml version="1.0" encoding="utf-8"?>
<!-- Generator: Adobe Illustrator 23.0.5, SVG Export Plug-In . SVG Version: 6.00 Build 0)  -->
<svg version="1.1" id="Layer_1" xmlns="http://www.w3.org/2000/svg" xmlns:xlink="http://www.w3.org/1999/xlink" x="0px" y="0px"
	 viewBox="0 0 16 16" style="enable-background:new 0 0 16 16;" xml:space="preserve">
<style type="text/css">
	.st0{fill:#FFFFFF;}
</style>
<path class="st0" d="M5.67,13.19v-0.72H4.52V2.19c0-0.06-0.01-0.11-0.03-0.16l-0.77-1.7L2.95,2.05C2.93,2.1,2.92,2.16,2.92,2.21
	v10.26H1.77v0.72h1.59v1.01C3.09,14.33,2.9,14.6,2.9,14.93c0,0.45,0.37,0.82,0.82,0.82s0.82-0.37,0.82-0.82
	c0-0.32-0.19-0.59-0.46-0.73v-1.01H5.67z"/>
<path class="st0" d="M14.43,13.19v-0.72h-1.15V2.19c0-0.06-0.01-0.11-0.03-0.16l-0.77-1.7l-0.77,1.72c-0.02,0.05-0.03,0.1-0.03,0.16
	v10.26h-1.15v0.72h1.59v1.01c-0.27,0.13-0.46,0.41-0.46,0.73c0,0.45,0.37,0.82,0.82,0.82s0.82-0.37,0.82-0.82
	c0-0.32-0.19-0.59-0.46-0.73v-1.01H14.43z"/>
<path class="st0" d="M6.12,2.85v0.72h1.15v10.28c0,0.06,0.01,0.11,0.03,0.16l0.77,1.7l0.77-1.72c0.02-0.05,0.03-0.1,0.03-0.16V3.57
	h1.15V2.85H8.43V1.84C8.7,1.71,8.89,1.44,8.89,1.11c0-0.45-0.37-0.82-0.82-0.82c-0.45,0-0.82,0.37-0.82,0.82
	c0,0.32,0.19,0.59,0.46,0.73v1.01H6.12z"/>
</svg>
