<?xml version="1.0" encoding="utf-8"?>
<!-- Generator: Adobe Illustrator 23.0.5, SVG Export Plug-In . SVG Version: 6.00 Build 0)  -->
<svg version="1.1" id="Layer_1" xmlns="http://www.w3.org/2000/svg" xmlns:xlink="http://www.w3.org/1999/xlink" x="0px" y="0px"
	 viewBox="0 0 16 16" style="enable-background:new 0 0 16 16;" xml:space="preserve">
<style type="text/css">
	.st0{fill:#FFFFFF;}
</style>
<path class="st0" d="M11.51,6.49c0.46-0.23,0.91-0.52,1.31-0.85c1.54-1.25,2.52-3.15,2.52-5.27c0-0.06,0-0.12-0.01-0.18H1.41
	C1.4,0.24,1.4,0.31,1.4,0.37c0,2.14,1,4.04,2.55,5.31c0.39,0.29,0.8,0.57,1.24,0.79c1.55,1.25,2.55,3.16,2.55,5.3
	c0,1.11-0.27,2.16-0.76,3.09H6.92c0,0-1.7-0.31-2.14,0c-0.49,0.35-0.74,0.52-1.45,0.97h9.92v-0.01c-0.56-0.39-0.85-0.63-1.31-0.96
	c-0.43-0.31-2.15,0-2.15,0H9.74c-0.49-0.93-0.76-1.98-0.76-3.09C8.98,9.64,9.97,7.74,11.51,6.49z"/>
</svg>
