<?xml version="1.0" encoding="utf-8"?>
<!-- Generator: Adobe Illustrator 23.0.5, SVG Export Plug-In . SVG Version: 6.00 Build 0)  -->
<svg version="1.1" id="Layer_1" xmlns="http://www.w3.org/2000/svg" xmlns:xlink="http://www.w3.org/1999/xlink" x="0px" y="0px"
	 viewBox="0 0 16 16" style="enable-background:new 0 0 16 16;" xml:space="preserve">
<style type="text/css">
	.st0{fill:#FFFFFF;}
</style>
<path class="st0" d="M3.78,15.82H3.13c-0.26,0-0.47-0.21-0.47-0.47V0.65c0-0.26,0.21-0.47,0.47-0.47h0.65
	c0.26,0,0.47,0.21,0.47,0.47v14.7C4.25,15.61,4.04,15.82,3.78,15.82z"/>
<path class="st0" d="M6.1,8.33c0,0-0.08,0.75-0.59,1.27s-1.27,0.59-1.27,0.59s0.08-0.75,0.59-1.27S6.1,8.33,6.1,8.33z"/>
<path class="st0" d="M6.1,4.08c0,0-0.08,0.75-0.59,1.27S4.25,5.93,4.25,5.93s0.08-0.75,0.59-1.27S6.1,4.08,6.1,4.08z"/>
<path class="st0" d="M2.65,8.33c0,0-0.75-0.08-1.27-0.59S0.79,6.47,0.79,6.47s0.75,0.08,1.27,0.59S2.65,8.33,2.65,8.33z"/>
<path class="st0" d="M2.65,4.08c0,0-0.75-0.08-1.27-0.59S0.79,2.22,0.79,2.22S1.54,2.3,2.05,2.81S2.65,4.08,2.65,4.08z"/>
<path class="st0" d="M12.89,15.82h-0.65c-0.26,0-0.47-0.21-0.47-0.47V0.65c0-0.26,0.21-0.47,0.47-0.47h0.65
	c0.26,0,0.47,0.21,0.47,0.47v14.7C13.35,15.61,13.15,15.82,12.89,15.82z"/>
<path class="st0" d="M15.21,8.33c0,0-0.08,0.75-0.59,1.27c-0.51,0.51-1.27,0.59-1.27,0.59s0.08-0.75,0.59-1.27
	C14.46,8.41,15.21,8.33,15.21,8.33z"/>
<path class="st0" d="M15.21,4.08c0,0-0.08,0.75-0.59,1.27c-0.51,0.51-1.27,0.59-1.27,0.59s0.08-0.75,0.59-1.27
	C14.46,4.15,15.21,4.08,15.21,4.08z"/>
<path class="st0" d="M11.75,8.33c0,0-0.75-0.08-1.27-0.59C9.97,7.22,9.9,6.47,9.9,6.47s0.75,0.08,1.27,0.59
	C11.67,7.58,11.75,8.33,11.75,8.33z"/>
<path class="st0" d="M11.75,4.08c0,0-0.75-0.08-1.27-0.59C9.97,2.97,9.9,2.22,9.9,2.22s0.75,0.08,1.27,0.59
	C11.67,3.32,11.75,4.08,11.75,4.08z"/>
<path class="st0" d="M8.5,15.82H7.85c-0.26,0-0.47-0.21-0.47-0.47V0.65c0-0.26,0.21-0.47,0.47-0.47H8.5c0.26,0,0.47,0.21,0.47,0.47
	v14.7C8.97,15.61,8.76,15.82,8.5,15.82z"/>
<path class="st0" d="M10.82,8.33c0,0-0.08,0.75-0.59,1.27c-0.51,0.51-1.27,0.59-1.27,0.59s0.08-0.75,0.59-1.27
	S10.82,8.33,10.82,8.33z"/>
<path class="st0" d="M10.82,4.08c0,0-0.08,0.75-0.59,1.27C9.72,5.85,8.97,5.93,8.97,5.93s0.08-0.75,0.59-1.27S10.82,4.08,10.82,4.08
	z"/>
<path class="st0" d="M7.37,8.33c0,0-0.75-0.08-1.27-0.59S5.51,6.47,5.51,6.47s0.75,0.08,1.27,0.59S7.37,8.33,7.37,8.33z"/>
<path class="st0" d="M7.37,4.08c0,0-0.75-0.08-1.27-0.59S5.51,2.22,5.51,2.22S6.26,2.3,6.78,2.81S7.37,4.08,7.37,4.08z"/>
</svg>
